<svg width="66" height="64" viewBox="0 0 66 64" fill="none" xmlns="http://www.w3.org/2000/svg">
<path d="M0 0H36C52.5685 0 66 13.4315 66 30V34C66 50.5685 52.5685 64 36 64H30C13.4315 64 0 50.5685 0 34V0Z" fill="#4285F4"/>
<path d="M6.384 49C6.512 49 6.736 48.776 7.056 48.328C7.376 47.88 7.792 47.128 8.304 46.072C8.528 45.592 8.912 44.776 9.456 43.624C10 42.472 10.64 41.112 11.376 39.544C12.112 37.976 12.88 36.344 13.68 34.648C14.48 32.92 15.232 31.272 15.936 29.704C16.672 28.136 17.312 26.76 17.856 25.576C18.4 24.392 18.784 23.56 19.008 23.08C19.456 22.056 19.696 21.32 19.728 20.872C19.76 20.424 19.696 20.2 19.536 20.2H27.936C27.808 20.2 27.76 20.424 27.792 20.872C27.824 21.32 28.048 22.056 28.464 23.08C28.688 23.56 29.056 24.392 29.568 25.576C30.08 26.728 30.688 28.088 31.392 29.656C32.128 31.224 32.88 32.856 33.648 34.552C34.416 36.216 35.168 37.832 35.904 39.4C36.64 40.968 37.28 42.344 37.824 43.528C38.368 44.712 38.768 45.56 39.024 46.072C39.536 47.128 40 47.88 40.416 48.328C40.864 48.776 41.2 49 41.424 49H32.544C32.864 48.936 33.12 48.68 33.312 48.232C33.536 47.784 33.504 47.064 33.216 46.072C33.152 45.816 33.04 45.448 32.88 44.968C32.72 44.488 32.576 44.136 32.448 43.912C32.16 43.272 31.856 42.872 31.536 42.712C31.248 42.552 30.688 42.472 29.856 42.472H17.568C16.64 42.472 16 42.536 15.648 42.664C15.328 42.792 15.056 43.192 14.832 43.864C14.704 44.248 14.576 44.632 14.448 45.016C14.32 45.4 14.224 45.752 14.16 46.072C13.872 47.128 13.792 47.88 13.92 48.328C14.048 48.776 14.224 49 14.448 49H6.384ZM18.816 38.632H28.464C29.392 38.632 29.904 38.552 30 38.392C30.096 38.232 30.048 37.88 29.856 37.336C29.28 35.96 28.608 34.456 27.84 32.824C27.104 31.192 26.368 29.592 25.632 28.024C24.928 26.456 24.304 25.128 23.76 24.04H23.664C22.992 25.448 22.304 26.92 21.6 28.456C20.896 29.96 20.224 31.384 19.584 32.728C18.976 34.04 18.48 35.112 18.096 35.944C17.712 36.776 17.52 37.192 17.52 37.192C17.296 37.704 17.216 38.072 17.28 38.296C17.376 38.52 17.888 38.632 18.816 38.632Z" fill="#FBBC05"/>
<path d="M37.432 32.14C35.8267 32.14 34.6227 31.7947 33.82 31.104C33.0267 30.404 32.63 29.3027 32.63 27.8C32.63 26.932 32.7933 26.176 33.12 25.532C33.4467 24.8787 33.9647 24.37 34.674 24.006C35.3833 23.642 36.3027 23.46 37.432 23.46C38.3187 23.46 39.056 23.5067 39.644 23.6C40.232 23.6933 40.6287 23.7867 40.834 23.88V24.16L41.114 25.42C40.8527 25.2333 40.4 25.0467 39.756 24.86C39.112 24.6733 38.3467 24.58 37.46 24.58C36.6293 24.58 35.976 24.72 35.5 25C35.024 25.2707 34.688 25.6487 34.492 26.134C34.296 26.6193 34.198 27.1747 34.198 27.8C34.198 28.4253 34.296 28.9807 34.492 29.466C34.6973 29.942 35.0613 30.32 35.584 30.6C36.116 30.8707 36.8767 31.006 37.866 31.006C38.6687 31.006 39.336 30.9127 39.868 30.726C40.4093 30.53 40.778 30.3433 40.974 30.166V30.586L41.114 31.44C40.9553 31.5893 40.568 31.7433 39.952 31.902C39.3453 32.0607 38.5053 32.14 37.432 32.14ZM44.9977 32.14C43.9804 32.14 43.2664 31.958 42.8557 31.594C42.445 31.2207 42.2397 30.7213 42.2397 30.096C42.2397 29.4427 42.487 28.9293 42.9817 28.556C43.4764 28.1827 44.2324 27.996 45.2497 27.996C45.9777 27.996 46.561 28.0707 46.9997 28.22C47.4384 28.36 47.7324 28.4813 47.8817 28.584C47.8724 27.7533 47.7137 27.1653 47.4057 26.82C47.107 26.4653 46.575 26.288 45.8097 26.288C45.259 26.288 44.7644 26.3533 44.3257 26.484C43.8964 26.6053 43.551 26.7407 43.2897 26.89C43.0284 27.03 42.865 27.1327 42.7997 27.198V26.918L42.6597 25.868C42.7437 25.8307 42.9257 25.77 43.2057 25.686C43.4857 25.5927 43.8544 25.5087 44.3117 25.434C44.769 25.35 45.3057 25.308 45.9217 25.308C47.0977 25.308 47.9564 25.56 48.4977 26.064C49.039 26.5587 49.3097 27.324 49.3097 28.36V31.16C49.3097 31.4213 49.3377 31.6127 49.3937 31.734C49.459 31.846 49.5244 31.9347 49.5897 32H47.8817V31.58L47.9097 31.314L47.8817 31.3C47.5737 31.58 47.1724 31.79 46.6777 31.93C46.183 32.07 45.623 32.14 44.9977 32.14ZM45.4597 31.146C46.2157 31.146 46.8084 31.0387 47.2377 30.824C47.667 30.6 47.8817 30.32 47.8817 29.984C47.8817 29.704 47.695 29.466 47.3217 29.27C46.9577 29.074 46.3884 28.976 45.6137 28.976C44.895 28.976 44.3864 29.0693 44.0877 29.256C43.7984 29.4427 43.6537 29.7227 43.6537 30.096C43.6537 30.46 43.7937 30.726 44.0737 30.894C44.363 31.062 44.825 31.146 45.4597 31.146ZM50.8003 32C50.8656 32 50.9263 31.9347 50.9823 31.804C51.0476 31.6733 51.0802 31.4587 51.0802 31.16V26.428C51.0802 26.1293 51.0476 25.9193 50.9823 25.798C50.9263 25.6673 50.8656 25.5973 50.8003 25.588C51.2109 25.588 51.5656 25.56 51.8643 25.504C52.1723 25.4387 52.3869 25.3733 52.5083 25.308V26.008L52.4803 26.246L52.5083 26.274C52.7229 26.0033 52.9983 25.7747 53.3343 25.588C53.6796 25.4013 54.1043 25.308 54.6083 25.308C55.0469 25.308 55.4249 25.3733 55.7423 25.504C56.0689 25.6253 56.3023 25.7513 56.4423 25.882L56.1623 27.058V27.478C56.0409 27.3287 55.8636 27.1747 55.6303 27.016C55.4063 26.848 55.1496 26.708 54.8603 26.596C54.5709 26.484 54.2629 26.428 53.9363 26.428C53.5629 26.428 53.2316 26.5773 52.9423 26.876C52.6529 27.1747 52.5083 27.6693 52.5083 28.36V31.16C52.5083 31.4587 52.5363 31.6733 52.5923 31.804C52.6576 31.9347 52.7229 32 52.7883 32H50.8003ZM60.4529 32.14C59.7156 32.14 59.1089 32.056 58.6329 31.888C58.1569 31.7107 57.7836 31.468 57.5129 31.16C57.2423 30.852 57.0509 30.4927 56.9389 30.082C56.8363 29.6713 56.7849 29.2233 56.7849 28.738C56.7849 27.6833 57.0836 26.848 57.6809 26.232C58.2876 25.616 59.1836 25.308 60.3689 25.308C61.0596 25.308 61.6149 25.4013 62.0349 25.588C62.4643 25.7747 62.7863 26.022 63.0009 26.33C63.2249 26.638 63.3743 26.974 63.4489 27.338C63.5329 27.6927 63.5749 28.0427 63.5749 28.388V29.046C63.5749 29.018 63.4443 28.99 63.1829 28.962C62.9309 28.9247 62.5016 28.906 61.8949 28.906H58.2129C58.2129 29.5967 58.4183 30.1427 58.8289 30.544C59.2396 30.9453 59.8509 31.146 60.6629 31.146C61.3629 31.146 61.9369 31.062 62.3849 30.894C62.8423 30.7167 63.1456 30.544 63.2949 30.376V30.656L63.4349 31.58C63.2296 31.7013 62.8656 31.8273 62.3429 31.958C61.8296 32.0793 61.1996 32.14 60.4529 32.14ZM58.7729 27.982H62.1749C62.1749 27.7393 62.1236 27.4873 62.0209 27.226C61.9183 26.9647 61.7363 26.7453 61.4749 26.568C61.2136 26.3813 60.8449 26.288 60.3689 26.288C59.7623 26.288 59.2769 26.4327 58.9129 26.722C58.5583 27.0113 58.3809 27.338 58.3809 27.702C58.3809 27.7953 58.4089 27.8653 58.4649 27.912C58.5209 27.9587 58.6236 27.982 58.7729 27.982Z" fill="white"/>
<path d="M43.7 49C43.7653 49 43.826 48.9347 43.882 48.804C43.9473 48.6733 43.98 48.4587 43.98 48.16V40.18C43.98 39.8813 43.9473 39.6713 43.882 39.55C43.826 39.4193 43.7653 39.3493 43.7 39.34C44.1107 39.34 44.4653 39.312 44.764 39.256C45.072 39.1907 45.2867 39.1253 45.408 39.06V48.16C45.408 48.4587 45.436 48.6733 45.492 48.804C45.5573 48.9347 45.6227 49 45.688 49H43.7ZM50.4926 49.14C49.5593 49.14 48.8266 48.9907 48.2946 48.692C47.772 48.3933 47.4033 47.9873 47.1886 47.474C46.9833 46.9607 46.8806 46.382 46.8806 45.738C46.8806 45.0847 46.988 44.5013 47.2026 43.988C47.4266 43.4747 47.8 43.0687 48.3226 42.77C48.8453 42.462 49.5686 42.308 50.4926 42.308C51.4166 42.308 52.14 42.462 52.6626 42.77C53.1853 43.0687 53.554 43.4747 53.7686 43.988C53.9926 44.5013 54.1046 45.0847 54.1046 45.738C54.1046 46.382 53.9973 46.9607 53.7826 47.474C53.5773 47.9873 53.2133 48.3933 52.6906 48.692C52.168 48.9907 51.4353 49.14 50.4926 49.14ZM50.4926 48.146C51.0713 48.146 51.5193 48.0527 51.8366 47.866C52.154 47.6793 52.3733 47.4087 52.4946 47.054C52.616 46.69 52.6766 46.2513 52.6766 45.738C52.6766 45.2247 52.6113 44.786 52.4806 44.422C52.3593 44.058 52.14 43.778 51.8226 43.582C51.5146 43.386 51.0713 43.288 50.4926 43.288C49.9233 43.288 49.48 43.3907 49.1626 43.596C48.8453 43.792 48.6213 44.0767 48.4906 44.45C48.3693 44.814 48.3086 45.248 48.3086 45.752C48.3086 46.2467 48.3693 46.676 48.4906 47.04C48.612 47.3947 48.8313 47.67 49.1486 47.866C49.466 48.0527 49.914 48.146 50.4926 48.146Z" fill="#FBBC05"/>
</svg>
